<?xml version="1.0" encoding="utf-8"?>
<!-- Generator: Adobe Illustrator 18.0.0, SVG Export Plug-In . SVG Version: 6.00 Build 0)  -->
<!DOCTYPE svg PUBLIC "-//W3C//DTD SVG 1.1//EN" "http://www.w3.org/Graphics/SVG/1.1/DTD/svg11.dtd">
<svg version="1.1" id="Layer_1" xmlns="http://www.w3.org/2000/svg" xmlns:xlink="http://www.w3.org/1999/xlink" x="0px" y="0px"
	 viewBox="0 0 476.7 187.3" enable-background="new 0 0 476.7 187.3" xml:space="preserve">
<g>
	<g enable-background="new    ">
		<g>
			<defs>
				<rect id="SVGID_1_" x="253.2" y="26.9" width="216" height="133.8"/>
			</defs>
			<clipPath id="SVGID_2_">
				<use xlink:href="#SVGID_1_"  overflow="visible"/>
			</clipPath>
			<g clip-path="url(#SVGID_2_)" enable-background="new    ">
				<polygon opacity="0.2" fill="#F2A02C" points="253.3,83.4 253.3,160.4 361.2,160.4 361.2,160 361.2,158.7 361.1,157.9 
					361,157.2 361,156.7 360.9,156.3 360.8,155.8 360.8,155.5 360.7,155.1 360.6,154.8 360.5,154.2 360.4,153.9 360.4,153.6 
					360.2,153.1 360.2,152.9 360.1,152.6 359.8,151.7 359.7,151.3 359.6,151.1 359.6,150.9 359.3,150.2 359.2,149.9 359.1,149.7 
					359.1,149.5 358.5,148.2 358.2,147.7 358.1,147.4 358.1,147.2 358,147.1 357.4,146 357.2,145.5 357,145.3 357,145.2 356.9,145 
					356.4,144.1 356.1,143.7 356,143.4 355.9,143.3 355.8,143.2 355.3,142.4 355,142 354.9,141.8 354.8,141.7 354.8,141.6 
					353.6,140 353.1,139.2 352.8,138.9 352.6,138.7 352.5,138.6 352.5,138.5 351.3,137.1 350.8,136.4 350.5,136.1 350.3,136 
					350.3,135.9 350.2,135.8 348.1,133.5 347,132.5 346.5,132 346.2,131.7 346.1,131.6 346,131.5 346,131.5 341.4,127.4 
					336.8,123.8 332.5,120.7 328,117.7 323.8,115 319.3,112.4 314.7,109.8 310.4,107.6 305.9,105.3 301.7,103.2 297.4,101.2 
					292.8,99.1 288.6,97.2 284.1,95.3 279.5,93.4 275.2,91.7 270.7,89.9 266.5,88.2 262.2,86.6 257.6,84.9 255.5,84.2 254.4,83.8 
					253.9,83.6 253.6,83.5 253.5,83.5 				"/>
				<polygon opacity="0.2" fill="#296396" points="361.2,160.3 361.2,160.4 469.1,160.4 469.1,83.4 469,83.4 468.9,83.5 468.8,83.5 
					468.8,83.5 468.6,83.6 468.5,83.6 468.5,83.6 468.2,83.7 468,83.8 467.9,83.8 467.9,83.8 467.3,84.1 467,84.2 466.8,84.2 
					466.8,84.2 466.7,84.3 465.5,84.7 464.9,84.9 464.5,85.1 464.4,85.1 464.3,85.1 460.1,86.7 455.5,88.4 451.3,90 447.1,91.7 
					442.5,93.6 438.2,95.3 433.7,97.3 429.1,99.3 424.8,101.3 420.3,103.4 416.1,105.5 411.8,107.7 407.2,110.1 403,112.5 
					398.4,115.2 394.2,117.8 390,120.6 385.4,123.9 381.2,127.3 376.7,131.3 374.4,133.5 373.2,134.7 372.6,135.3 372.3,135.7 
					372.2,135.8 372.1,135.9 372.1,136 369.9,138.5 368.9,139.9 368.3,140.6 368.1,141 367.9,141.2 367.9,141.2 367.8,141.3 
					366.7,143.1 366.1,144 365.8,144.5 365.7,144.7 365.6,144.8 365.5,145 365,146 364.7,146.6 364.5,146.9 364.5,147 364.4,147.2 
					363.8,148.4 363.5,149.1 363.4,149.4 363.3,149.6 363.2,149.8 363,150.5 362.9,150.9 362.8,151 362.7,151.2 362.5,152.1 
					362.3,152.5 362.3,152.7 362.2,153 362.1,153.5 362,153.7 361.9,154 361.8,154.6 361.7,154.9 361.7,155.3 361.6,155.6 
					361.5,156 361.5,156.5 361.4,157 361.3,157.5 361.3,158.3 361.2,159.4 				"/>
				<polyline fill="none" stroke="#F2A02C" stroke-width="1.6" stroke-linecap="square" stroke-miterlimit="3.25" points="
					253.3,83.4 253.5,83.5 253.6,83.5 253.9,83.6 254.4,83.8 255.5,84.2 257.6,84.9 262.2,86.6 266.5,88.2 270.7,89.9 275.2,91.7 
					279.5,93.4 284.1,95.3 288.6,97.2 292.8,99.1 297.4,101.2 301.7,103.2 305.9,105.3 310.4,107.6 314.7,109.8 319.3,112.4 
					323.8,115 328,117.7 332.5,120.7 336.8,123.8 341.4,127.4 346,131.5 346,131.5 346.1,131.6 346.2,131.7 346.5,132 347,132.5 
					348.1,133.5 350.2,135.8 350.3,135.9 350.3,136 350.5,136.1 350.8,136.4 351.3,137.1 352.5,138.5 352.5,138.6 352.6,138.7 
					352.8,138.9 353.1,139.2 353.6,140 354.8,141.6 354.8,141.7 354.9,141.8 355,142 355.3,142.4 355.8,143.2 355.9,143.3 
					356,143.4 356.1,143.7 356.4,144.1 356.9,145 357,145.2 357,145.3 357.2,145.5 357.4,146 358,147.1 358.1,147.2 358.1,147.4 
					358.2,147.7 358.5,148.2 359.1,149.5 359.1,149.7 359.2,149.9 359.3,150.2 359.6,150.9 359.6,151.1 359.7,151.3 359.8,151.7 
					360.1,152.6 360.2,152.9 360.2,153.1 360.4,153.6 360.4,153.9 360.5,154.2 360.6,154.8 360.7,155.1 360.8,155.5 360.8,155.8 
					360.9,156.3 361,156.7 361,157.2 361.1,157.9 361.2,158.7 361.2,160 				"/>
				
					<polyline fill="none" stroke="#296396" stroke-width="1.6" stroke-linecap="square" stroke-miterlimit="3.25" stroke-dasharray="4,4" points="
					361.2,160.3 361.2,159.4 361.3,158.3 361.3,157.5 361.4,157 361.5,156.5 361.5,156 361.6,155.6 361.7,155.3 361.7,154.9 
					361.8,154.6 361.9,154 362,153.7 362.1,153.5 362.2,153 362.3,152.7 362.3,152.5 362.5,152.1 362.7,151.2 362.8,151 
					362.9,150.9 363,150.5 363.2,149.8 363.3,149.6 363.4,149.4 363.5,149.1 363.8,148.4 364.4,147.2 364.5,147 364.5,146.9 
					364.7,146.6 365,146 365.5,145 365.6,144.8 365.7,144.7 365.8,144.5 366.1,144 366.7,143.1 367.8,141.3 367.9,141.2 
					367.9,141.2 368.1,141 368.3,140.6 368.9,139.9 369.9,138.5 372.1,136 372.1,135.9 372.2,135.8 372.3,135.7 372.6,135.3 
					373.2,134.7 374.4,133.5 376.7,131.3 381.2,127.3 385.4,123.9 390,120.6 394.2,117.8 398.4,115.2 403,112.5 407.2,110.1 
					411.8,107.7 416.1,105.5 420.3,103.4 424.8,101.3 429.1,99.3 433.7,97.3 438.2,95.3 442.5,93.6 447.1,91.7 451.3,90 455.5,88.4 
					460.1,86.7 464.3,85.1 464.4,85.1 464.5,85.1 464.9,84.9 465.5,84.7 466.7,84.3 466.8,84.2 466.8,84.2 467,84.2 467.3,84.1 
					467.9,83.8 467.9,83.8 468,83.8 468.2,83.7 468.5,83.6 468.5,83.6 468.6,83.6 468.8,83.5 468.8,83.5 468.9,83.5 469,83.4 
					469.1,83.4 				"/>
				<polyline fill="none" stroke="#808080" stroke-width="1.6" stroke-linecap="square" stroke-miterlimit="3.25" points="
					253.3,156.7 253.5,156.7 253.6,156.7 254.4,156.6 255.5,156.6 257.6,156.5 262.2,156.4 266.5,156.2 270.7,156 275.2,155.7 
					279.5,155.5 284.1,155.2 288.6,154.9 292.8,154.5 297.4,154.1 301.7,153.7 305.9,153.2 310.4,152.5 310.5,152.5 310.7,152.5 
					311.5,152.4 312.5,152.2 314.7,151.8 314.8,151.8 314.9,151.8 315.2,151.7 315.8,151.6 317,151.4 319.3,150.9 319.3,150.8 
					319.4,150.8 319.5,150.8 319.8,150.7 320.4,150.6 321.5,150.3 321.6,150.3 321.7,150.3 321.8,150.3 322.1,150.2 322.6,150 
					323.8,149.7 324.3,149.6 324.8,149.4 325.9,149.1 326.1,149 326.4,148.9 326.9,148.7 328,148.4 328.1,148.3 328.1,148.3 
					328.3,148.3 328.5,148.2 329.1,147.9 330.3,147.5 330.3,147.4 330.4,147.4 330.5,147.4 330.8,147.2 331.4,147 332.5,146.4 
					332.6,146.4 332.7,146.4 333.1,146.2 333.6,145.9 334.7,145.3 334.7,145.3 334.8,145.3 334.9,145.2 335.2,145 335.7,144.7 
					336.8,144 336.9,144 336.9,143.9 337.1,143.8 337.4,143.6 338,143.2 339.1,142.3 339.2,142.2 339.3,142.2 339.4,142.1 
					339.7,141.8 340.3,141.3 341.4,140.2 341.6,140 341.7,139.9 342,139.6 342.6,139 342.7,138.8 342.8,138.6 343.1,138.3 
					343.7,137.6 343.8,137.5 343.8,137.4 344,137.2 344.3,136.8 344.8,136 346,134.2 346,134.1 346.1,134 346.2,133.7 346.5,133.2 
					347,132.2 347.1,132.1 347.1,132 347.3,131.7 347.5,131.1 348.1,130 348.1,129.8 348.2,129.7 348.3,129.3 348.6,128.7 
					349.1,127.3 349.3,126.9 349.4,126.6 349.7,125.8 350.2,124.1 350.3,123.9 350.3,123.6 350.5,123.2 350.8,122.1 350.8,121.9 
					350.9,121.6 351,121.1 351.3,119.9 351.4,119.6 351.5,119.3 351.6,118.7 351.9,117.4 352.5,114.6 352.5,114.2 352.6,113.8 
					352.8,113 353.1,111.4 353.1,110.9 353.2,110.5 353.3,109.6 353.6,107.7 353.7,107.2 353.8,106.6 353.9,105.6 354.2,103.4 
					354.8,98.3 354.8,97.6 354.9,96.9 355,95.6 355.3,92.6 355.4,91.8 355.4,91 355.6,89.4 355.8,85.9 355.9,84.9 356,83.9 
					356.1,81.9 356.4,77.6 356.4,76.4 356.5,75.2 356.6,72.7 356.9,67.3 357,65.8 357,64.3 357.2,61.1 357.2,59.4 357.3,57.6 
					357.4,54 357.5,52 357.6,50 357.7,45.8 358,36.3 358.1,33.6 358.1,30.9 358.2,27.1 				"/>
				<polyline fill="none" stroke="#808080" stroke-width="1.6" stroke-linecap="square" stroke-miterlimit="3.25" points="
					364.2,27.1 364.2,29.3 364.4,35.1 364.5,37.8 364.5,40.5 364.7,45.4 364.7,47.7 364.8,49.9 365,54.1 365,56.1 365.1,58 
					365.2,61.6 365.5,68.1 365.6,69.6 365.7,71 365.8,73.8 366.1,78.8 366.2,80 366.2,81.1 366.4,83.3 366.7,87.3 366.7,88.2 
					366.8,89.2 366.9,90.9 367.2,94.2 367.3,95 367.4,95.7 367.5,97.2 367.8,99.9 367.9,100.5 367.9,101.1 368.1,102.2 368.3,104.4 
					368.4,104.9 368.5,105.4 368.6,106.4 368.9,108.3 368.9,108.7 369,109.2 369.1,110 369.4,111.7 369.9,114.6 370,115 
					370.1,115.3 370.2,116 370.5,117.3 371,119.6 371.1,119.9 371.1,120.1 371.3,120.7 371.5,121.7 372.1,123.6 372.1,123.8 
					372.2,124.1 372.3,124.5 372.6,125.4 373.2,127.1 373.3,127.5 373.5,127.9 373.8,128.6 374.4,130 374.4,130.2 374.5,130.4 
					374.6,130.7 374.9,131.3 375.5,132.5 376.7,134.6 376.8,134.8 376.9,135 377.2,135.5 377.8,136.3 377.9,136.4 377.9,136.5 
					378.1,136.7 378.4,137.1 378.9,137.8 379,137.9 379.1,138 379.2,138.2 379.5,138.5 380,139.2 381.2,140.4 381.3,140.5 
					381.4,140.7 381.7,140.9 382.2,141.4 383.3,142.3 383.4,142.4 383.6,142.5 383.8,142.7 384.3,143.1 385.4,143.9 385.5,143.9 
					385.5,144 385.7,144.1 386,144.3 386.5,144.6 387.7,145.3 387.8,145.3 387.8,145.4 388,145.5 388.3,145.6 388.8,145.9 
					390,146.5 390,146.5 390.1,146.6 390.5,146.8 391,147 392.1,147.5 392.2,147.5 392.2,147.5 392.6,147.7 393.2,147.9 
					394.2,148.3 394.4,148.3 394.5,148.4 394.8,148.5 395.3,148.7 396.3,149 398.4,149.7 398.5,149.7 398.6,149.7 398.7,149.7 
					399,149.8 399.6,150 400.7,150.3 403,150.8 403,150.8 403.1,150.9 403.2,150.9 403.5,150.9 404,151.1 405.1,151.3 407.2,151.7 
					407.3,151.7 407.3,151.7 407.5,151.8 407.8,151.8 408.3,151.9 409.5,152.1 411.8,152.5 411.9,152.5 411.9,152.5 412.1,152.5 
					412.3,152.6 412.9,152.7 413.9,152.8 416.1,153.1 420.3,153.6 424.8,154.1 429.1,154.5 433.7,154.9 438.2,155.2 442.5,155.5 
					447.1,155.7 451.3,156 455.5,156.2 460.1,156.3 464.3,156.5 464.4,156.5 464.5,156.5 464.6,156.5 464.9,156.5 465.5,156.6 
					466.7,156.6 466.8,156.6 466.8,156.6 467,156.6 467.3,156.6 467.9,156.6 467.9,156.6 468,156.6 468.5,156.7 468.5,156.7 
					468.6,156.7 468.8,156.7 468.8,156.7 468.9,156.7 469,156.7 469.1,156.7 				"/>
				
					<line fill="none" stroke="#000000" stroke-width="0.2" stroke-linecap="square" stroke-miterlimit="3.25" x1="469.1" y1="160.4" x2="253.3" y2="160.4"/>
				
					<line fill="none" stroke="#000000" stroke-width="0.2" stroke-linecap="square" stroke-miterlimit="3.25" x1="253.3" y1="160.4" x2="253.3" y2="27.1"/>
			</g>
		</g>
	</g>
</g>
<g>
	<g enable-background="new    ">
		<g>
			<defs>
				<polyline id="SVGID_3_" points="234.9,160.7 18.9,160.7 18.9,26.9 234.9,26.9 				"/>
			</defs>
			<clipPath id="SVGID_4_">
				<use xlink:href="#SVGID_3_"  overflow="visible"/>
			</clipPath>
			<linearGradient id="SVGID_5_" gradientUnits="userSpaceOnUse" x1="22.2397" y1="129.7543" x2="231.4884" y2="129.7543">
				<stop  offset="0" style="stop-color:#F2A02C"/>
				<stop  offset="1" style="stop-color:#296396"/>
			</linearGradient>
			
				<polyline clip-path="url(#SVGID_4_)" fill="none" stroke="url(#SVGID_5_)" stroke-width="1.6" stroke-linecap="square" stroke-miterlimit="3.25" points="
				23.3,153.7 23.6,153.6 23.8,153.4 24.3,153.2 25.4,152.6 27.4,151.5 31.8,149 35.9,146.7 39.9,144.5 44.3,142.1 48.4,139.8 
				52.8,137.4 57.2,135 61.2,132.8 65.6,130.5 69.7,128.3 73.7,126.1 78.1,123.8 82.2,121.7 86.6,119.5 90.9,117.3 95,115.3 
				99.4,113.3 103.4,111.5 107.9,109.7 107.9,109.7 108,109.6 108.4,109.5 109,109.3 110.1,108.9 112.2,108.1 112.4,108.1 
				112.5,108.1 112.7,108 113.2,107.8 114.3,107.5 114.5,107.4 114.8,107.4 115.3,107.2 116.3,106.9 116.4,106.9 116.4,106.9 
				116.6,106.9 116.8,106.8 117.4,106.7 117.5,106.7 117.5,106.6 117.7,106.6 117.9,106.5 118.5,106.4 118.6,106.4 118.8,106.4 
				119,106.3 119.6,106.2 120.7,106 120.8,106 120.8,106 120.9,106 121.2,105.9 121.7,105.9 121.8,105.8 121.8,105.8 122,105.8 
				122.2,105.8 122.7,105.7 122.9,105.7 123,105.7 123.3,105.7 123.3,105.7 123.4,105.7 123.5,105.6 123.8,105.6 123.8,105.6 
				123.9,105.6 124,105.6 124.3,105.6 124.4,105.6 124.4,105.6 124.5,105.6 124.8,105.6 124.9,105.6 124.9,105.5 125.1,105.5 
				125.2,105.5 125.3,105.5 125.6,105.5 125.7,105.5 125.8,105.5 125.9,105.5 126,105.5 126.1,105.5 126.1,105.5 126.2,105.5 
				126.2,105.5 126.4,105.5 126.4,105.5 126.6,105.5 126.6,105.5 127.1,105.5 127.1,105.5 127.3,105.5 127.4,105.5 127.4,105.5 
				127.5,105.5 127.6,105.5 127.6,105.5 127.7,105.5 127.8,105.5 127.9,105.5 127.9,105.5 128.3,105.5 128.4,105.5 128.6,105.5 
				128.8,105.6 128.9,105.6 129,105.6 129.1,105.6 129.4,105.6 129.6,105.6 129.9,105.6 130,105.6 130.1,105.6 130.2,105.6 
				130.5,105.7 131,105.7 131.1,105.7 131.2,105.7 131.3,105.8 131.6,105.8 132.1,105.9 132.2,105.9 132.2,105.9 132.4,105.9 
				132.7,105.9 133.2,106 133.3,106 133.3,106.1 133.5,106.1 134.2,106.2 135.2,106.4 135.5,106.5 135.8,106.5 136.3,106.7 
				137.3,106.9 137.3,106.9 137.4,106.9 137.6,107 137.8,107 138.4,107.2 139.5,107.5 141.7,108.2 141.8,108.2 141.8,108.3 
				142,108.3 142.2,108.4 142.8,108.6 143.9,109 146,109.8 150.1,111.4 154.5,113.3 158.6,115.3 162.6,117.2 167,119.4 171,121.4 
				175.4,123.7 179.5,125.9 183.6,128 188,130.4 192,132.6 196.5,135 200.8,137.4 204.9,139.6 209.3,142 213.4,144.3 217.4,146.5 
				221.8,148.9 225.9,151.2 225.9,151.2 226,151.3 226.1,151.3 226.4,151.5 227,151.8 228.1,152.5 228.2,152.5 228.3,152.5 
				228.4,152.6 228.7,152.8 229.3,153.1 229.3,153.1 229.4,153.2 229.5,153.2 229.8,153.4 230,153.5 230.1,153.6 230.2,153.6 
				230.3,153.6 230.4,153.7 			"/>
			
				<polyline clip-path="url(#SVGID_4_)" fill="none" stroke="#000000" stroke-width="1.6" stroke-linecap="square" stroke-miterlimit="3.25" points="
				23.3,33.7 23.6,33.9 23.8,34 24.3,34.3 25.4,34.9 27.4,36 31.8,38.5 35.9,40.7 39.9,43 44.3,45.4 48.4,47.6 52.8,50.1 57.2,52.4 
				61.2,54.6 65.6,57 69.7,59.2 73.7,61.3 78.1,63.6 82.2,65.8 86.6,68 90.9,70.2 95,72.1 99.4,74.2 103.4,76 107.9,77.8 
				107.9,77.8 108,77.8 108.2,77.9 108.4,78 109,78.2 110.1,78.6 112.2,79.3 112.4,79.4 112.5,79.4 112.7,79.5 113.2,79.6 114.3,80 
				114.5,80 114.8,80.1 115.3,80.2 116.3,80.5 116.4,80.5 116.4,80.6 116.6,80.6 116.8,80.7 117.4,80.8 117.5,80.8 117.5,80.8 
				117.7,80.9 117.9,80.9 118.5,81 118.6,81.1 118.8,81.1 119,81.2 119.6,81.3 120.7,81.5 120.8,81.5 120.8,81.5 120.9,81.5 
				121.2,81.5 121.7,81.6 121.8,81.6 121.8,81.6 122,81.6 122.2,81.7 122.7,81.7 122.9,81.8 123,81.8 123.3,81.8 123.3,81.8 
				123.4,81.8 123.5,81.8 123.8,81.8 123.8,81.8 123.9,81.8 124,81.9 124.3,81.9 124.4,81.9 124.4,81.9 124.5,81.9 124.8,81.9 
				124.9,81.9 124.9,81.9 125.1,81.9 125.2,81.9 125.3,81.9 125.6,81.9 125.7,81.9 125.8,82 125.9,82 126,82 126.1,82 126.1,82 
				126.2,82 126.2,82 126.4,82 126.4,82 126.6,82 126.7,82 127.1,82 127.1,82 127.3,82 127.4,82 127.4,82 127.5,82 127.6,82 
				127.6,82 127.7,82 127.8,82 127.9,82 127.9,82 128.3,81.9 128.4,81.9 128.6,81.9 128.8,81.9 128.9,81.9 129.1,81.9 129.4,81.9 
				129.5,81.9 129.6,81.9 129.9,81.8 130,81.8 130.1,81.8 130.2,81.8 130.5,81.8 131,81.7 131.1,81.7 131.2,81.7 131.3,81.7 
				131.6,81.7 132.1,81.6 132.2,81.6 132.2,81.6 132.4,81.6 132.7,81.5 133.2,81.4 133.3,81.4 133.3,81.4 133.5,81.4 133.7,81.3 
				134.2,81.2 135.2,81 135.3,81 135.5,81 135.8,80.9 136.3,80.8 137.3,80.6 137.3,80.5 137.4,80.5 137.6,80.5 137.8,80.4 
				138.4,80.3 139.5,80 141.7,79.3 141.8,79.2 141.8,79.2 142,79.2 142.2,79.1 142.8,78.9 143.9,78.5 146,77.7 150.1,76.1 
				154.5,74.1 158.6,72.2 162.6,70.3 167,68.1 171,66 175.4,63.7 179.5,61.6 183.6,59.4 188,57.1 192,54.9 196.5,52.5 200.8,50.1 
				204.9,47.9 209.3,45.5 213.4,43.2 217.4,41 221.8,38.5 225.9,36.3 226,36.2 226.1,36.1 226.4,36 227,35.6 228.1,35 228.2,35 
				228.3,34.9 228.4,34.9 228.7,34.7 229.3,34.4 229.3,34.3 229.4,34.3 229.5,34.2 229.8,34.1 230,34 230.1,33.9 230.2,33.9 
				230.3,33.8 230.4,33.7 			"/>
			
				<line clip-path="url(#SVGID_4_)" fill="none" stroke="#000000" stroke-width="0.2" stroke-linecap="square" stroke-miterlimit="3.25" x1="234.7" y1="160.4" x2="19" y2="160.4"/>
			
				<line clip-path="url(#SVGID_4_)" fill="none" stroke="#000000" stroke-width="0.2" stroke-linecap="square" stroke-miterlimit="3.25" x1="19" y1="160.4" x2="19" y2="27.1"/>
			
				<line clip-path="url(#SVGID_4_)" fill="none" stroke="#000000" stroke-width="0.2" stroke-linecap="square" stroke-miterlimit="3.25" x1="19" y1="27.1" x2="234.7" y2="27.1"/>
			
				<path clip-path="url(#SVGID_4_)" fill="none" stroke="#000000" stroke-width="0.2" stroke-linecap="square" stroke-miterlimit="3.25" d="
				M234.7,160.4"/>
			
				<path clip-path="url(#SVGID_4_)" fill="none" stroke="#000000" stroke-width="0.2" stroke-linecap="square" stroke-miterlimit="3.25" d="
				M234.7,27.1"/>
			<use xlink:href="#SVGID_3_"  overflow="visible" fill="none" stroke="#FFFFFF" stroke-miterlimit="3.25"/>
		</g>
	</g>
</g>
<g>
	<line fill="#FFFFFF" x1="126.6" y1="83.1" x2="126.6" y2="104.4"/>
	<g>
		<line fill="none" stroke="#686868" stroke-width="0.7087" stroke-miterlimit="10" x1="126.6" y1="85.2" x2="126.6" y2="102.2"/>
		<g>
			<path fill="#686868" d="M126.6,83.1c-0.4,1-1,2.3-1.7,3l1.7-0.6l1.7,0.6C127.6,85.4,127,84.1,126.6,83.1z"/>
		</g>
		<g>
			<path fill="#686868" d="M126.6,104.4c-0.4-1-1-2.3-1.7-3l1.7,0.6l1.7-0.6C127.6,102.1,126.9,103.4,126.6,104.4z"/>
		</g>
	</g>
</g>
<g>
	<g>
		<line fill="none" stroke="#000000" stroke-width="0.7087" stroke-miterlimit="10" x1="18.9" y1="24.2" x2="18.9" y2="161.1"/>
		<g>
			<path d="M18.9,19.9c-0.7,2-2,4.5-3.4,6.1l3.4-1.2l3.4,1.2C20.9,24.4,19.6,21.9,18.9,19.9z"/>
		</g>
	</g>
</g>
<g>
	<g>
		<line fill="none" stroke="#000000" stroke-width="0.7087" stroke-miterlimit="10" x1="18.9" y1="160.7" x2="238.9" y2="160.7"/>
		<g>
			<path d="M243.2,160.7c-2,0.7-4.5,2-6.1,3.4l1.2-3.4l-1.2-3.4C238.7,158.7,241.2,160,243.2,160.7z"/>
		</g>
	</g>
</g>
<line fill="none" stroke="#686868" stroke-width="0.7087" stroke-miterlimit="10" x1="191" y1="212" x2="191" y2="211.5"/>
<g>
	<g id="page1_3_" transform="matrix(1.13 0 0 1.13 -63.986 -64.9906)">
		<g>
			<path id="g1-69_1_" d="M64.7,157.4v-4.7l-1-0.2v4.7l-2.8-0.6v-4.9l-1-0.2v6l8.7,1.8v-6.2l-1-0.2v5.1L64.7,157.4z"/>
		</g>
		<g>
			<path id="g1-110_1_" d="M62.4,150.3l6.2,1.3v-1l-3.4-0.7c-1.3-0.3-2.1-1.1-2.1-2.2c0-0.6,0.4-1,1-1c0.1,0,0.3,0,0.4,0.1l4.2,0.9
				v-1l-4.5-1c-0.2,0-0.3,0-0.5,0c-0.9,0-1.5,0.6-1.5,1.6c0,0.9,0.3,1.7,1,2.3l-0.8-0.2V150.3z"/>
		</g>
		<g>
			<path id="g1-101_1_" d="M65.9,139.1l-0.2,0c-0.6-0.1-1.1-0.2-1.4-0.2c-1.1,0-2,1-2,2.3c0,1,0.5,2,1.3,2.6c0.8,0.6,2.1,1,3.1,1
				c0.6,0,1.3-0.3,1.7-0.7c0.4-0.4,0.6-0.9,0.6-1.6c0-1.4-0.9-2.7-2.2-3v1c0.8,0.4,1.3,1.1,1.3,1.9c0,0.9-0.6,1.5-1.6,1.5
				c-0.3,0-0.4,0-0.5-0.1V139.1z M65,143.5c-1.1-0.3-1.9-1.2-1.9-2.2c0-0.8,0.6-1.4,1.5-1.4c0.1,0,0.2,0,0.4,0V143.5z"/>
		</g>
		<g>
			<path id="g1-114_1_" d="M62.4,137.1l6.2,1.3v-1l-3.2-0.7c-1.5-0.3-2.2-1.2-2.1-2.5l-1-0.2c0,0.2,0,0.3,0,0.4c0,0.7,0.3,1.2,1.2,2
				l-1-0.2V137.1z"/>
		</g>
		<g>
			<path id="g1-103_3_" d="M62.4,129l0.9,0.2c-0.4,0.2-0.6,0.3-0.8,0.6c-0.2,0.3-0.4,0.7-0.4,1.1c0,0.9,0.5,1.8,1.2,2.4
				c0.8,0.6,2.1,1.1,3.2,1.1c1.3,0,2.2-0.8,2.2-2.1c0-0.8-0.3-1.5-1-2l0.2,0c1.6,0.3,2.3,1,2.3,2.3c0,0.8-0.3,1.3-0.9,1.3h-0.1h-0.1
				v1l0.2,0c0.1,0,0.2,0,0.2,0c0.9,0,1.5-0.8,1.5-2.1c0-0.9-0.3-1.8-0.8-2.3c-0.6-0.6-1.3-0.9-2.8-1.2l-5.2-1.1V129z M63.2,130.9
				c0-0.8,0.6-1.3,1.5-1.3c0.7,0,1.6,0.2,2.2,0.5c0.7,0.4,1.2,1.1,1.2,1.8c0,0.8-0.6,1.3-1.5,1.3c-0.7,0-1.5-0.2-2.1-0.5
				C63.6,132.3,63.2,131.7,63.2,130.9z"/>
		</g>
		<g>
			<path id="g1-121_1_" d="M62.4,122.7l4.8,2.8l-4.8,0.5v1.1l6.3-0.8l1,0.6c0.5,0.3,0.6,0.5,0.6,1c0,0.1,0,0.2,0,0.5l0.9,0.2
				c0.1-0.2,0.1-0.4,0.1-0.6c0-0.8-0.4-1.5-1.3-2l-7.6-4.4V122.7z"/>
		</g>
	</g>
</g>
<g>
	<g>
		<g id="page1_4_" transform="matrix(1.13 0 0 1.13 -63.986 -67.393)">
			<g id="g3-103_1_" transform="scale(1.5)">
				<path id="g1-103_4_" d="M169.2,208.3l-0.2,0.9c-0.2-0.4-0.3-0.6-0.6-0.8c-0.3-0.2-0.7-0.4-1.1-0.4c-0.9,0-1.8,0.5-2.4,1.2
					c-0.6,0.8-1.1,2.1-1.1,3.2c0,1.3,0.8,2.2,2.1,2.2c0.8,0,1.5-0.3,2-1l0,0.2c-0.3,1.6-1,2.3-2.3,2.3c-0.8,0-1.3-0.3-1.3-0.9v-0.1
					v-0.1h-1l0,0.2c0,0.1,0,0.2,0,0.2c0,0.9,0.8,1.5,2.1,1.5c0.9,0,1.8-0.3,2.3-0.8c0.6-0.6,0.9-1.3,1.2-2.8l1.1-5.2H169.2z
					 M167.3,209.1c0.8,0,1.3,0.6,1.3,1.5c0,0.7-0.2,1.6-0.5,2.2c-0.4,0.7-1.1,1.2-1.8,1.2c-0.8,0-1.3-0.6-1.3-1.5
					c0-0.7,0.2-1.5,0.5-2.1C165.9,209.5,166.5,209.1,167.3,209.1z"/>
			</g>
			<g>
				<path id="g1-99_1_" d="M174,213.6l0-0.1c0-0.1,0-0.2,0-0.2c0-0.3-0.1-0.6-0.3-0.8c-0.2-0.3-0.6-0.4-1-0.4
					c-0.7,0-1.4,0.3-1.8,0.8c-0.4,0.5-0.6,1.3-0.6,2.1c0,0.4,0.1,0.8,0.3,1c0.3,0.3,0.6,0.5,1.1,0.5c0.7,0,1.2-0.2,1.6-0.7
					c0.2-0.2,0.3-0.5,0.5-1H173c-0.2,0.7-0.7,1-1.2,1c-0.5,0-0.9-0.4-0.9-1c0-0.5,0.2-1.1,0.4-1.5c0.3-0.5,0.7-0.7,1.2-0.7
					c0.5,0,0.8,0.3,0.8,0.7c0,0,0,0.1,0,0.2H174z"/>
			</g>
		</g>
	</g>
</g>
<line fill="#FFFFFF" stroke="#000000" stroke-width="0.7087" stroke-miterlimit="10" x1="126.6" y1="158.1" x2="126.6" y2="163.3"/>
<g>
	<g>
		<line fill="none" stroke="#000000" stroke-width="0.7087" stroke-miterlimit="10" x1="253.2" y1="24.3" x2="253.2" y2="161.2"/>
		<g>
			<path d="M253.2,20c-0.7,2-2,4.5-3.4,6.1l3.4-1.2l3.4,1.2C255.2,24.5,253.9,22,253.2,20z"/>
		</g>
	</g>
</g>
<g>
	<g>
		<line fill="none" stroke="#000000" stroke-width="0.7087" stroke-miterlimit="10" x1="253.2" y1="160.8" x2="469.7" y2="160.8"/>
		<g>
			<path d="M474,160.8c-2,0.7-4.5,2-6.1,3.4l1.2-3.4l-1.2-3.4C469.5,158.8,472,160.1,474,160.8z"/>
		</g>
	</g>
</g>
<g>
	<g>
		<g id="page1_2_" transform="matrix(1.13 0 0 1.13 -63.986 -67.393)">
			<g id="g3-103_2_" transform="scale(1.5)">
				<path id="g1-103_2_" d="M376.8,208.1l-0.2,0.9c-0.2-0.4-0.3-0.6-0.6-0.8c-0.3-0.2-0.7-0.4-1.1-0.4c-0.9,0-1.8,0.5-2.4,1.2
					c-0.6,0.8-1.1,2.1-1.1,3.2c0,1.3,0.8,2.2,2.1,2.2c0.8,0,1.5-0.3,2-1l0,0.2c-0.3,1.6-1,2.3-2.3,2.3c-0.8,0-1.3-0.3-1.3-0.9v-0.1
					v-0.1h-1l0,0.2c0,0.1,0,0.2,0,0.2c0,0.9,0.8,1.5,2.1,1.5c0.9,0,1.8-0.3,2.3-0.8c0.6-0.6,0.9-1.3,1.2-2.8l1.1-5.2H376.8z
					 M374.9,208.9c0.8,0,1.3,0.6,1.3,1.5c0,0.7-0.2,1.6-0.5,2.2c-0.4,0.7-1.1,1.2-1.8,1.2c-0.8,0-1.3-0.6-1.3-1.5
					c0-0.7,0.2-1.5,0.5-2.1C373.5,209.3,374.1,208.9,374.9,208.9z"/>
			</g>
			<g>
				<path id="g1-99_2_" d="M381.6,213.4l0-0.1c0-0.1,0-0.2,0-0.2c0-0.3-0.1-0.6-0.3-0.8c-0.2-0.3-0.6-0.4-1-0.4
					c-0.7,0-1.4,0.3-1.8,0.8c-0.4,0.5-0.6,1.3-0.6,2.1c0,0.4,0.1,0.8,0.3,1c0.3,0.3,0.6,0.5,1.1,0.5c0.7,0,1.2-0.2,1.6-0.7
					c0.2-0.2,0.3-0.5,0.5-1h-0.7c-0.2,0.7-0.7,1-1.2,1c-0.5,0-0.9-0.4-0.9-1c0-0.5,0.2-1.1,0.4-1.5c0.3-0.5,0.7-0.7,1.2-0.7
					c0.5,0,0.8,0.3,0.8,0.7c0,0,0,0.1,0,0.2H381.6z"/>
			</g>
		</g>
	</g>
</g>
<line fill="#FFFFFF" stroke="#000000" stroke-width="0.7087" stroke-miterlimit="10" x1="361.2" y1="157.9" x2="361.2" y2="163.1"/>
<g>
	<g id="page1_5_" transform="matrix(1.13 0 0 1.13 -63.986 -64.9906)">
		<g>
			<path id="g1-84_1_" d="M276.1,373.1v-2.8l-1-0.2v6.8l1,0.2v-2.9l7.7,1.6v-1.1L276.1,373.1z"/>
		</g>
		<g>
			<path id="g1-101_6_" d="M281,366.4l-0.2,0c-0.6-0.1-1.1-0.2-1.4-0.2c-1.1,0-2,1-2,2.3c0,1,0.5,2,1.3,2.6c0.8,0.6,2.1,1,3.1,1
				c0.6,0,1.3-0.3,1.7-0.7c0.4-0.4,0.6-0.9,0.6-1.6c0-1.4-0.9-2.7-2.2-3v1c0.8,0.4,1.3,1.1,1.3,1.9c0,0.9-0.6,1.5-1.6,1.5
				c-0.3,0-0.4,0-0.5-0.1V366.4z M280.1,370.8c-1.1-0.3-1.9-1.2-1.9-2.2c0-0.8,0.6-1.4,1.5-1.4c0.1,0,0.2,0,0.4,0V370.8z"/>
		</g>
		<g>
			<path id="g1-109_1_" d="M277.5,364.3l6.2,1.3v-1l-3.9-0.8c-0.9-0.2-1.6-1-1.6-1.8c0-0.6,0.3-1,0.8-1c0.1,0,0.3,0,0.4,0l4.3,0.9
				v-1l-3.9-0.8c-0.9-0.2-1.6-1-1.6-1.9c0-0.6,0.3-0.9,0.9-0.9c0.2,0,0.2,0,0.6,0.1l4.1,0.9v-1l-4.4-0.9c-0.1,0-0.5-0.1-0.7-0.1
				c-0.3,0-0.6,0.1-0.9,0.4c-0.3,0.3-0.4,0.6-0.4,1.1c0,0.8,0.3,1.5,1,2.2c-0.7,0.2-1,0.7-1,1.4c0,0.8,0.2,1.4,1,2.1l-0.8-0.2V364.3
				z"/>
		</g>
		<g>
			<path id="g1-112_1_" d="M286.3,356.5v-1l-3.3-0.7c0.8-0.4,1.1-0.9,1.1-1.7c0-0.9-0.4-1.8-1.2-2.4c-0.8-0.6-2-1-3.2-1
				c-1.4,0-2.3,0.8-2.3,2.1c0,0.5,0.2,1,0.5,1.5c0.2,0.4,0.4,0.5,0.7,0.7l-1-0.2v1L286.3,356.5z M278.3,352.1c0-0.9,0.6-1.4,1.6-1.4
				c0.6,0,1.4,0.2,2,0.5c0.8,0.4,1.2,1,1.2,1.8c0,0.9-0.6,1.4-1.5,1.4c-0.7,0-1.5-0.2-2.1-0.6C278.7,353.4,278.3,352.8,278.3,352.1z
				"/>
		</g>
		<g>
			<path id="g1-101_5_" d="M281,343.3l-0.2,0c-0.6-0.1-1.1-0.2-1.4-0.2c-1.1,0-2,1-2,2.3c0,1,0.5,2,1.3,2.6c0.8,0.6,2.1,1,3.1,1
				c0.6,0,1.3-0.3,1.7-0.7c0.4-0.4,0.6-0.9,0.6-1.6c0-1.4-0.9-2.7-2.2-3v1c0.8,0.4,1.3,1.1,1.3,1.9c0,0.9-0.6,1.5-1.6,1.5
				c-0.3,0-0.4,0-0.5-0.1V343.3z M280.1,347.6c-1.1-0.3-1.9-1.2-1.9-2.2c0-0.8,0.6-1.4,1.5-1.4c0.1,0,0.2,0,0.4,0V347.6z"/>
		</g>
		<g>
			<path id="g1-114_4_" d="M277.5,341.2l6.2,1.3v-1l-3.2-0.7c-1.5-0.3-2.2-1.2-2.1-2.5l-1-0.2c0,0.2,0,0.3,0,0.4
				c0,0.7,0.3,1.2,1.2,2l-1-0.2V341.2z"/>
		</g>
		<g>
			<path id="g1-97_1_" d="M283.2,332.9c0,0.1,0,0.2,0,0.2c0,0.3-0.1,0.5-0.3,0.5c0,0-0.1,0-0.1,0l-3.6-0.8c-0.3-0.1-0.3-0.1-0.4-0.1
				c-0.8,0-1.3,0.8-1.3,2.1c0,1.7,0.7,2.7,2,2.9v-1c-0.3-0.1-0.5-0.2-0.7-0.4c-0.3-0.3-0.4-0.8-0.4-1.3c0-0.7,0.3-1.3,0.8-1.3
				c0,0,0.1,0,0.2,0l0.2,0c0.5,0.1,0.6,0.3,0.7,1.2c0.1,1.6,0.3,2.1,0.6,2.7c0.4,0.6,1,1,1.7,1c1,0,1.5-0.6,1.5-1.7
				c0-0.4-0.1-0.9-0.2-1.3c-0.1-0.4-0.3-0.6-0.7-1h0.1h0c0.5,0,0.8-0.3,0.8-0.9c0-0.1,0-0.2-0.1-0.5c0,0,0-0.1,0-0.2L283.2,332.9z
				 M281.8,334.4c0.7,0.2,1.4,1.2,1.4,2.3c0,0.7-0.3,1.1-0.8,1.1c-0.4,0-0.8-0.2-1-0.6c-0.2-0.3-0.3-0.6-0.4-1.2
				c-0.2-1.1-0.2-1.2-0.3-1.7L281.8,334.4z"/>
		</g>
		<g>
			<path id="g1-116_1_" d="M277.5,328.5v1.1l-1.7-0.4v1l1.7,0.4v0.8l0.8,0.2v-0.8l4.4,0.9c0.1,0,0.3,0,0.4,0c0.6,0,0.9-0.4,0.9-1.1
				c0-0.2,0-0.6-0.1-0.8l-0.9-0.2c0.1,0.4,0.1,0.4,0.1,0.6c0,0.3-0.1,0.4-0.3,0.4c0,0-0.1,0-0.2,0l-4.4-0.9v-1.1L277.5,328.5z"/>
		</g>
		<g>
			<path id="g1-117_1_" d="M283.8,323.8l-6.2-1.3v1l3.5,0.8c1.3,0.3,2.1,1.1,2.1,2.1c0,0.6-0.4,1.1-0.9,1.1c-0.1,0-0.2,0-0.3,0
				l-4.4-0.9v1l4.8,1c0.1,0,0.3,0,0.4,0c0.8,0,1.3-0.6,1.3-1.6c0-0.9-0.3-1.6-1-2.3l0.7,0.1V323.8z"/>
		</g>
		<g>
			<path id="g1-114_3_" d="M277.5,320.8l6.2,1.3v-1l-3.2-0.7c-1.5-0.3-2.2-1.2-2.1-2.5l-1-0.2c0,0.2,0,0.3,0,0.4
				c0,0.7,0.3,1.2,1.2,2l-1-0.2V320.8z"/>
		</g>
		<g>
			<path id="g1-101_4_" d="M281,312.3l-0.2,0c-0.6-0.1-1.1-0.2-1.4-0.2c-1.1,0-2,1-2,2.3c0,1,0.5,2,1.3,2.6c0.8,0.6,2.1,1,3.1,1
				c0.6,0,1.3-0.3,1.7-0.7c0.4-0.4,0.6-0.9,0.6-1.6c0-1.4-0.9-2.7-2.2-3v1c0.8,0.4,1.3,1.1,1.3,1.9c0,0.9-0.6,1.5-1.6,1.5
				c-0.3,0-0.4,0-0.5-0.1V312.3z M280.1,316.6c-1.1-0.3-1.9-1.2-1.9-2.2c0-0.8,0.6-1.4,1.5-1.4c0.1,0,0.2,0,0.4,0V316.6z"/>
		</g>
	</g>
</g>
<text transform="matrix(1 0 0 1 301.2795 24.6829)" font-family="'MyriadPro-Regular'" font-size="12">quantum critical regime</text>
<text transform="matrix(1 0 0 1 266.2878 124.8651)"><tspan x="0" y="0" font-family="'MyriadPro-Regular'" font-size="12">“ordered”</tspan><tspan x="1" y="14.4" font-family="'MyriadPro-Regular'" font-size="12">quantum</tspan><tspan x="9.2" y="28.8" font-family="'MyriadPro-Regular'" font-size="12">phase</tspan></text>
<text transform="matrix(1 0 0 1 400.1244 126.5011)"><tspan x="0" y="0" font-family="'MyriadPro-Regular'" font-size="12">“disordered”</tspan><tspan x="8.2" y="14.4" font-family="'MyriadPro-Regular'" font-size="12">quantum</tspan><tspan x="16.4" y="28.8" font-family="'MyriadPro-Regular'" font-size="12">phase</tspan></text>
<g>
	<line x1="328.3" y1="58.1" x2="356.6" y2="58.1"/>
	<g>
		<line fill="none" stroke="#000000" stroke-width="0.7087" stroke-miterlimit="10" x1="328.3" y1="58.1" x2="352.3" y2="58.1"/>
		<g>
			<path d="M356.6,58.1c-2,0.7-4.5,2-6.1,3.4l1.2-3.4l-1.2-3.4C352.1,56,354.6,57.3,356.6,58.1z"/>
		</g>
	</g>
</g>
<g>
	<line x1="394.3" y1="58.1" x2="365.9" y2="58.1"/>
	<g>
		<line fill="none" stroke="#000000" stroke-width="0.7087" stroke-miterlimit="10" x1="394.3" y1="58.1" x2="370.2" y2="58.1"/>
		<g>
			<path d="M365.9,58.1c2-0.7,4.5-2,6.1-3.4l-1.2,3.4l1.2,3.4C370.5,60.1,368,58.8,365.9,58.1z"/>
		</g>
	</g>
</g>
<g>
	<g id="page1_6_" transform="matrix(1.13 0 0 1.13 -63.986 -65.1985)">
		<g>
			<path id="g0-24_1_" d="M411.6,112.1l-1.3-0.5c-0.3-0.1-1-0.4-1-1.1c0-1,1.3-2.1,1.5-2.1c0,0,0.1,0,0.2,0c0.3,0.1,0.6,0.1,0.8,0.1
				c0.4,0,1.1,0,1.1-0.3c0-0.3-0.4-0.3-0.9-0.3c-0.2,0-0.6,0-1,0.1c-0.3-0.2-0.4-0.6-0.4-1c0-0.7,0.4-1.6,1.4-2
				c0.2,0.3,0.5,0.3,0.8,0.3c0.3,0,1,0,1-0.3c0-0.3-0.6-0.3-1-0.3c-0.2,0-0.4,0-0.8,0.1c-0.1-0.1-0.1-0.2-0.1-0.4c0-0.2,0-0.4,0-0.4
				c0-0.1-0.1-0.1-0.1-0.1c-0.2,0-0.2,0.4-0.2,0.5c0,0.2,0,0.3,0.1,0.5c-1.4,0.4-2.1,1.4-2.1,2.2c0,0.7,0.5,1.1,0.8,1.3
				c-1.2,0.7-1.8,1.9-1.8,2.5c0,1,0.9,1.4,1.4,1.6l1.1,0.4c0.3,0.1,0.8,0.3,0.9,0.4c0.1,0.1,0.2,0.2,0.2,0.4c0,0.3-0.2,0.7-0.6,0.7
				c-0.2,0-0.6,0-1-0.4c-0.1-0.1-0.1-0.1-0.1-0.1c-0.1,0-0.1,0-0.1,0.1c0,0.1,0.6,0.6,1.3,0.6c0.8,0,1.2-0.7,1.2-1.3
				c0-0.4-0.2-0.7-0.6-0.8L411.6,112.1z M412.2,104.9c0.2-0.1,0.4-0.1,0.6-0.1c0.4,0,0.4,0,0.7,0.1c-0.1,0.1-0.2,0.1-0.7,0.1
				C412.5,105,412.3,105,412.2,104.9z M411.3,108.2c0.3-0.1,0.5-0.1,0.7-0.1c0.4,0,0.4,0,0.7,0.1c-0.1,0.1-0.2,0.1-0.8,0.1
				C411.6,108.3,411.5,108.3,411.3,108.2z"/>
		</g>
	</g>
</g>
</svg>
